<?xml version="1.0" standalone="no"?><!DOCTYPE svg PUBLIC "-//W3C//DTD SVG 1.1//EN" "http://www.w3.org/Graphics/SVG/1.1/DTD/svg11.dtd"><svg t="1522411046321" class="icon" style="" viewBox="0 0 1024 1024" version="1.1" xmlns="http://www.w3.org/2000/svg" p-id="2251" xmlns:xlink="http://www.w3.org/1999/xlink" width="16" height="16"><defs><style type="text/css"></style></defs><path d="M828.8 195.2C652.8 19.2 368 19.2 195.2 195.2 19.2 371.2 19.2 656 195.2 828.8c176 176 460.8 176 633.6 0 176-172.8 176-460.8 0-633.6z m-22.4 236.8L534.4 704c-12.8 12.8-32 12.8-44.8 0l-272-272c-12.8-12.8-12.8-32 0-44.8s32-12.8 44.8 0l249.6 249.6 249.6-249.6c12.8-12.8 32-12.8 44.8 0 12.8 9.6 12.8 32 0 44.8z" p-id="2252" fill="#31c27c"></path></svg>