<?xml version="1.0" standalone="no"?><!DOCTYPE svg PUBLIC "-//W3C//DTD SVG 1.1//EN" "http://www.w3.org/Graphics/SVG/1.1/DTD/svg11.dtd"><svg t="1522637625579" class="icon" style="" viewBox="0 0 1024 1024" version="1.1" xmlns="http://www.w3.org/2000/svg" p-id="1527" xmlns:xlink="http://www.w3.org/1999/xlink" width="16" height="16"><defs><style type="text/css"></style></defs><path d="M556.8 512l316.8-316.8c12.8-12.8 12.8-32 0-44.8-12.8-12.8-32-12.8-44.8 0L512 467.2 195.2 150.4c-12.8-12.8-32-12.8-44.8 0-12.8 12.8-12.8 32 0 44.8l316.8 316.8-316.8 316.8c-12.8 12.8-12.8 32 0 44.8 12.8 12.8 32 12.8 44.8 0l316.8-316.8 316.8 316.8c12.8 12.8 32 12.8 44.8 0 12.8-12.8 12.8-32 0-44.8L556.8 512z" p-id="1528" fill="#31c27c"></path></svg>